<svg width="135" height="135" viewBox="0 0 135 135" fill="none" xmlns="http://www.w3.org/2000/svg">
<circle cx="67.4996" cy="67.4996" r="61.4996" transform="rotate(90 67.4996 67.4996)" fill="#0D151D"/>
<circle cx="67.4998" cy="67.5004" r="64.1543" transform="rotate(-90 67.4998 67.5004)" stroke="#006FD5" stroke-width="5.30932"/>
<path d="M64.53 50.6155V31.6689C64.5551 30.8934 64.879 30.158 65.4332 29.6183C65.9874 29.0786 66.7284 28.7769 67.4997 28.7769C68.271 28.7769 69.0121 29.0786 69.5663 29.6183C70.1204 30.158 70.4443 30.8934 70.4695 31.6689V50.6155C70.4443 51.391 70.1204 52.1264 69.5663 52.6661C69.0121 53.2058 68.271 53.5075 67.4997 53.5075C66.7284 53.5075 65.9874 53.2058 65.4332 52.6661C64.879 52.1264 64.5551 51.391 64.53 50.6155ZM79.2715 37.0692C78.8059 36.7229 78.2246 36.5725 77.6507 36.6499C77.0768 36.7273 76.5554 37.0264 76.1969 37.4838C75.8384 37.9413 75.6709 38.5212 75.7299 39.1007C75.7889 39.6802 76.0698 40.2138 76.5131 40.5886C78.2493 41.9574 79.6523 43.7066 80.6154 45.7032C81.5785 47.6997 82.0763 49.8909 82.0709 52.1102C82.0709 60.1932 75.5337 66.7704 67.5013 66.7704C59.4673 66.7704 52.9301 60.1932 52.9301 52.1102C52.9246 49.8921 53.4219 47.702 54.3842 45.7063C55.3464 43.7106 56.7483 41.962 58.4832 40.5934C58.9318 40.2201 59.2173 39.685 59.2789 39.1026C59.3404 38.5202 59.1729 37.9367 58.8123 37.4769C58.4518 37.0171 57.9267 36.7175 57.3494 36.6422C56.7721 36.5669 56.1884 36.7219 55.7232 37.0739C53.4584 38.861 51.6285 41.1441 50.3724 43.7496C49.1164 46.3551 48.4674 49.2144 48.4747 52.1102C48.4747 62.6654 57.0102 71.2514 67.4997 71.2514C77.9893 71.2514 86.5248 62.6638 86.5248 52.1102C86.5248 46.209 83.8799 40.7283 79.2715 37.0692Z" fill="white"/>
<path d="M61.6752 88.8493H60.0236C59.9935 88.6356 59.9319 88.4458 59.8388 88.2799C59.7458 88.1115 59.6264 87.9682 59.4806 87.85C59.3348 87.7319 59.1664 87.6414 58.9753 87.5785C58.7868 87.5157 58.5819 87.4843 58.3607 87.4843C57.961 87.4843 57.6128 87.5836 57.3162 87.7822C57.0195 87.9783 56.7895 88.2648 56.6261 88.6419C56.4627 89.0165 56.381 89.4715 56.381 90.007C56.381 90.5575 56.4627 91.0201 56.6261 91.3946C56.792 91.7692 57.0233 92.052 57.3199 92.2431C57.6166 92.4341 57.9597 92.5296 58.3494 92.5296C58.5681 92.5296 58.7704 92.5007 58.9565 92.4429C59.145 92.3851 59.3122 92.3009 59.458 92.1903C59.6038 92.0771 59.7245 91.9401 59.82 91.7792C59.918 91.6184 59.9859 91.4348 60.0236 91.2287L61.6752 91.2362C61.6325 91.5907 61.5257 91.9326 61.3547 92.2619C61.1863 92.5887 60.9588 92.8816 60.6722 93.1405C60.3881 93.3969 60.0488 93.6006 59.6541 93.7514C59.2619 93.8997 58.8182 93.9739 58.323 93.9739C57.6342 93.9739 57.0183 93.818 56.4753 93.5063C55.9348 93.1946 55.5074 92.7433 55.1932 92.1526C54.8815 91.5618 54.7256 90.8466 54.7256 90.007C54.7256 89.1648 54.884 88.4484 55.2007 87.8576C55.5175 87.2668 55.9474 86.8168 56.4904 86.5076C57.0334 86.1959 57.6442 86.0401 58.323 86.0401C58.7704 86.0401 59.1852 86.1029 59.5673 86.2286C59.952 86.3543 60.2926 86.5378 60.5892 86.7791C60.8859 87.018 61.1272 87.3108 61.3132 87.6577C61.5018 88.0047 61.6224 88.4018 61.6752 88.8493ZM64.4223 86.1456V93.8683H62.8159V86.1456H64.4223ZM65.7091 93.8683V88.0763H67.3155V93.8683H65.7091ZM66.516 87.3297C66.2772 87.3297 66.0723 87.2505 65.9014 87.0921C65.733 86.9312 65.6487 86.7389 65.6487 86.5152C65.6487 86.294 65.733 86.1042 65.9014 85.9458C66.0723 85.7849 66.2772 85.7044 66.516 85.7044C66.7549 85.7044 66.9585 85.7849 67.1269 85.9458C67.2979 86.1042 67.3833 86.294 67.3833 86.5152C67.3833 86.7389 67.2979 86.9312 67.1269 87.0921C66.9585 87.2505 66.7549 87.3297 66.516 87.3297ZM71.2192 93.9814C70.6259 93.9814 70.1156 93.8557 69.6882 93.6043C69.2634 93.3504 68.9366 92.9985 68.7078 92.5485C68.4816 92.0985 68.3685 91.5807 68.3685 90.9949C68.3685 90.4016 68.4828 89.8813 68.7116 89.4338C68.9429 88.9838 69.2709 88.6331 69.6958 88.3817C70.1206 88.1278 70.6259 88.0009 71.2117 88.0009C71.7169 88.0009 72.1594 88.0926 72.539 88.2762C72.9186 88.4597 73.219 88.7173 73.4402 89.0492C73.6614 89.381 73.7834 89.7707 73.806 90.2181H72.2901C72.2474 89.929 72.1343 89.6965 71.9507 89.5205C71.7697 89.342 71.5322 89.2528 71.2381 89.2528C70.9892 89.2528 70.7717 89.3207 70.5857 89.4564C70.4022 89.5897 70.2589 89.7845 70.1558 90.0409C70.0528 90.2973 70.0012 90.6078 70.0012 90.9723C70.0012 91.3418 70.0515 91.6561 70.1521 91.915C70.2551 92.1739 70.3997 92.3713 70.5857 92.507C70.7717 92.6428 70.9892 92.7106 71.2381 92.7106C71.4216 92.7106 71.5862 92.6729 71.732 92.5975C71.8803 92.5221 72.0023 92.4127 72.0978 92.2695C72.1958 92.1237 72.2599 91.9489 72.2901 91.7453H73.806C73.7808 92.1878 73.6602 92.5774 73.444 92.9143C73.2303 93.2486 72.9349 93.5101 72.5578 93.6986C72.1808 93.8871 71.7345 93.9814 71.2192 93.9814ZM76.29 92.2016L76.2938 90.2747H76.5276L78.3828 88.0763H80.2268L77.7342 90.9874H77.3534L76.29 92.2016ZM74.8345 93.8683V86.1456H76.4408V93.8683H74.8345ZM78.4545 93.8683L76.7501 91.3456L77.821 90.2106L80.3361 93.8683H78.4545ZM44.3846 101.076V102.283H40.8966V101.076H44.3846ZM41.6884 99.6886H43.2948V105.088C43.2948 105.237 43.3174 105.352 43.3627 105.435C43.4079 105.516 43.4708 105.572 43.5512 105.605C43.6342 105.638 43.7297 105.654 43.8378 105.654C43.9132 105.654 43.9887 105.648 44.0641 105.635C44.1395 105.62 44.1973 105.609 44.2375 105.601L44.4902 106.797C44.4097 106.822 44.2966 106.851 44.1508 106.883C44.005 106.919 43.8278 106.94 43.6191 106.947C43.232 106.963 42.8926 106.911 42.601 106.793C42.3119 106.675 42.0869 106.491 41.926 106.242C41.7651 105.993 41.6859 105.679 41.6884 105.3V99.6886ZM47.9857 106.981C47.4 106.981 46.8934 106.857 46.4661 106.608C46.0412 106.357 45.7132 106.007 45.4819 105.56C45.2506 105.11 45.135 104.588 45.135 103.995C45.135 103.397 45.2506 102.874 45.4819 102.426C45.7132 101.976 46.0412 101.627 46.4661 101.378C46.8934 101.127 47.4 101.001 47.9857 101.001C48.5715 101.001 49.0768 101.127 49.5016 101.378C49.929 101.627 50.2583 101.976 50.4896 102.426C50.7208 102.874 50.8365 103.397 50.8365 103.995C50.8365 104.588 50.7208 105.11 50.4896 105.56C50.2583 106.007 49.929 106.357 49.5016 106.608C49.0768 106.857 48.5715 106.981 47.9857 106.981ZM47.9933 105.737C48.2597 105.737 48.4822 105.662 48.6607 105.511C48.8392 105.357 48.9737 105.149 49.0642 104.885C49.1572 104.621 49.2037 104.32 49.2037 103.984C49.2037 103.647 49.1572 103.346 49.0642 103.082C48.9737 102.818 48.8392 102.61 48.6607 102.456C48.4822 102.303 48.2597 102.226 47.9933 102.226C47.7243 102.226 47.498 102.303 47.3145 102.456C47.1335 102.61 46.9965 102.818 46.9035 103.082C46.813 103.346 46.7678 103.647 46.7678 103.984C46.7678 104.32 46.813 104.621 46.9035 104.885C46.9965 105.149 47.1335 105.357 47.3145 105.511C47.498 105.662 47.7243 105.737 47.9933 105.737ZM56.9556 106.981C56.3623 106.981 55.852 106.856 55.4246 106.604C54.9998 106.35 54.673 105.998 54.4442 105.548C54.218 105.099 54.1048 104.581 54.1048 103.995C54.1048 103.402 54.2192 102.881 54.448 102.434C54.6793 101.984 55.0073 101.633 55.4322 101.382C55.857 101.128 56.3623 101.001 56.948 101.001C57.4533 101.001 57.8958 101.093 58.2754 101.276C58.655 101.46 58.9554 101.717 59.1766 102.049C59.3978 102.381 59.5197 102.771 59.5424 103.218H58.0265C57.9838 102.929 57.8706 102.696 57.6871 102.521C57.5061 102.342 57.2686 102.253 56.9744 102.253C56.7256 102.253 56.5081 102.321 56.3221 102.456C56.1386 102.59 55.9953 102.784 55.8922 103.041C55.7891 103.297 55.7376 103.608 55.7376 103.972C55.7376 104.342 55.7879 104.656 55.8884 104.915C55.9915 105.174 56.1361 105.371 56.3221 105.507C56.5081 105.643 56.7256 105.711 56.9744 105.711C57.1579 105.711 57.3226 105.673 57.4684 105.598C57.6167 105.522 57.7387 105.413 57.8342 105.269C57.9322 105.124 57.9963 104.949 58.0265 104.745H59.5424C59.5172 105.188 59.3966 105.577 59.1804 105.914C58.9667 106.249 58.6713 106.51 58.2942 106.699C57.9171 106.887 57.4709 106.981 56.9556 106.981ZM63.1878 106.981C62.6021 106.981 62.0955 106.857 61.6682 106.608C61.2433 106.357 60.9153 106.007 60.684 105.56C60.4527 105.11 60.3371 104.588 60.3371 103.995C60.3371 103.397 60.4527 102.874 60.684 102.426C60.9153 101.976 61.2433 101.627 61.6682 101.378C62.0955 101.127 62.6021 101.001 63.1878 101.001C63.7735 101.001 64.2788 101.127 64.7037 101.378C65.131 101.627 65.4604 101.976 65.6916 102.426C65.9229 102.874 66.0386 103.397 66.0386 103.995C66.0386 104.588 65.9229 105.11 65.6916 105.56C65.4604 106.007 65.131 106.357 64.7037 106.608C64.2788 106.857 63.7735 106.981 63.1878 106.981ZM63.1954 105.737C63.4618 105.737 63.6843 105.662 63.8628 105.511C64.0413 105.357 64.1758 105.149 64.2663 104.885C64.3593 104.621 64.4058 104.32 64.4058 103.984C64.4058 103.647 64.3593 103.346 64.2663 103.082C64.1758 102.818 64.0413 102.61 63.8628 102.456C63.6843 102.303 63.4618 102.226 63.1954 102.226C62.9264 102.226 62.7001 102.303 62.5166 102.456C62.3356 102.61 62.1986 102.818 62.1056 103.082C62.0151 103.346 61.9698 103.647 61.9698 103.984C61.9698 104.32 62.0151 104.621 62.1056 104.885C62.1986 105.149 62.3356 105.357 62.5166 105.511C62.7001 105.662 62.9264 105.737 63.1954 105.737ZM68.6894 103.52V106.868H67.0831V101.076H68.614V102.098H68.6819C68.8101 101.761 69.025 101.495 69.3267 101.299C69.6284 101.1 69.9942 101.001 70.424 101.001C70.8262 101.001 71.1769 101.089 71.4761 101.265C71.7752 101.441 72.0078 101.692 72.1737 102.019C72.3396 102.343 72.4226 102.73 72.4226 103.18V106.868H70.8162V103.467C70.8187 103.113 70.7282 102.836 70.5447 102.637C70.3612 102.436 70.1085 102.336 69.7868 102.336C69.5706 102.336 69.3795 102.382 69.2136 102.475C69.0502 102.568 68.922 102.704 68.829 102.883C68.7385 103.058 68.692 103.271 68.6894 103.52ZM75.295 103.52V106.868H73.6886V101.076H75.2196V102.098H75.2874C75.4157 101.761 75.6306 101.495 75.9323 101.299C76.2339 101.1 76.5997 101.001 77.0296 101.001C77.4318 101.001 77.7825 101.089 78.0816 101.265C78.3808 101.441 78.6133 101.692 78.7792 102.019C78.9451 102.343 79.0281 102.73 79.0281 103.18V106.868H77.4217V103.467C77.4242 103.113 77.3337 102.836 77.1502 102.637C76.9667 102.436 76.7141 102.336 76.3923 102.336C76.1761 102.336 75.9851 102.382 75.8191 102.475C75.6557 102.568 75.5275 102.704 75.4345 102.883C75.344 103.058 75.2975 103.271 75.295 103.52ZM82.9337 106.981C82.3379 106.981 81.8251 106.861 81.3952 106.619C80.9679 106.376 80.6386 106.031 80.4073 105.586C80.176 105.139 80.0604 104.61 80.0604 103.999C80.0604 103.403 80.176 102.88 80.4073 102.43C80.6386 101.98 80.9641 101.629 81.3839 101.378C81.8063 101.127 82.3015 101.001 82.8696 101.001C83.2517 101.001 83.6075 101.062 83.9368 101.186C84.2686 101.306 84.5577 101.489 84.8041 101.732C85.0529 101.976 85.2465 102.283 85.3848 102.653C85.523 103.02 85.5922 103.449 85.5922 103.942V104.383H80.7014V103.388H84.0801C84.0801 103.157 84.0298 102.952 83.9292 102.773C83.8287 102.595 83.6892 102.455 83.5107 102.355C83.3347 102.252 83.1298 102.2 82.896 102.2C82.6522 102.2 82.436 102.257 82.2474 102.37C82.0614 102.48 81.9156 102.63 81.81 102.818C81.7045 103.004 81.6504 103.212 81.6479 103.441V104.387C81.6479 104.674 81.7007 104.921 81.8063 105.13C81.9144 105.339 82.0665 105.499 82.2625 105.613C82.4586 105.726 82.6912 105.782 82.9601 105.782C83.1386 105.782 83.302 105.757 83.4503 105.707C83.5987 105.657 83.7256 105.581 83.8312 105.481C83.9368 105.38 84.0172 105.257 84.0725 105.111L85.5582 105.209C85.4828 105.566 85.3282 105.878 85.0944 106.144C84.8631 106.408 84.564 106.614 84.197 106.763C83.8325 106.909 83.4114 106.981 82.9337 106.981ZM89.2574 106.981C88.6641 106.981 88.1538 106.856 87.7265 106.604C87.3016 106.35 86.9748 105.998 86.746 105.548C86.5198 105.099 86.4067 104.581 86.4067 103.995C86.4067 103.402 86.5211 102.881 86.7498 102.434C86.9811 101.984 87.3092 101.633 87.734 101.382C88.1588 101.128 88.6641 101.001 89.2499 101.001C89.7552 101.001 90.1976 101.093 90.5772 101.276C90.9568 101.46 91.2572 101.717 91.4784 102.049C91.6997 102.381 91.8216 102.771 91.8442 103.218H90.3283C90.2856 102.929 90.1725 102.696 89.989 102.521C89.808 102.342 89.5704 102.253 89.2763 102.253C89.0274 102.253 88.8099 102.321 88.6239 102.456C88.4404 102.59 88.2971 102.784 88.194 103.041C88.091 103.297 88.0394 103.608 88.0394 103.972C88.0394 104.342 88.0897 104.656 88.1903 104.915C88.2933 105.174 88.4379 105.371 88.6239 105.507C88.8099 105.643 89.0274 105.711 89.2763 105.711C89.4598 105.711 89.6244 105.673 89.7702 105.598C89.9186 105.522 90.0405 105.413 90.136 105.269C90.2341 105.124 90.2982 104.949 90.3283 104.745H91.8442C91.8191 105.188 91.6984 105.577 91.4822 105.914C91.2685 106.249 90.9731 106.51 90.5961 106.699C90.219 106.887 89.7728 106.981 89.2574 106.981ZM95.9535 101.076V102.283H92.4654V101.076H95.9535ZM93.2573 99.6886H94.8637V105.088C94.8637 105.237 94.8863 105.352 94.9316 105.435C94.9768 105.516 95.0397 105.572 95.1201 105.605C95.2031 105.638 95.2986 105.654 95.4067 105.654C95.4821 105.654 95.5575 105.648 95.6329 105.635C95.7084 105.62 95.7662 105.609 95.8064 105.601L96.059 106.797C95.9786 106.822 95.8655 106.851 95.7197 106.883C95.5739 106.919 95.3966 106.94 95.188 106.947C94.8008 106.963 94.4615 106.911 94.1699 106.793C93.8808 106.675 93.6558 106.491 93.4949 106.242C93.334 105.993 93.2548 105.679 93.2573 105.3V99.6886Z" fill="white"/>
</svg>
