<svg width="135" height="135" viewBox="0 0 135 135" fill="none" xmlns="http://www.w3.org/2000/svg">
<circle cx="67.5004" cy="67.4996" r="61.4996" transform="rotate(90 67.5004 67.4996)" fill="#006FD5"/>
<circle cx="67.4998" cy="67.5004" r="64.1543" transform="rotate(-90 67.4998 67.5004)" stroke="#006FD5" stroke-width="5.30932"/>
<path d="M86.5374 32.4701C81.9106 27.8433 74.4236 27.8433 69.8022 32.4701L65.8974 36.375C65.1271 37.1452 65.1271 38.394 65.8974 39.1642C66.6676 39.9344 67.9163 39.9344 68.6866 39.1642L72.5914 35.2593C75.5338 32.317 80.4996 32.0052 83.7482 35.2593C87.0023 38.5134 86.6906 43.4738 83.7482 46.4161L79.8461 50.3182C79.0744 51.09 79.0744 52.3412 79.8461 53.1129C80.6178 53.8846 81.869 53.8846 82.6408 53.1129L86.5429 49.2108C91.1587 44.584 91.1587 37.0969 86.5374 32.4701ZM65.4216 64.7482C62.4792 67.6906 57.5134 68.0023 54.2648 64.7482C51.0107 61.4942 51.3224 56.5338 54.2648 53.5914L58.1669 49.6893C58.9386 48.9176 58.9386 47.6663 58.1669 46.8946C57.3952 46.1229 56.144 46.1229 55.3722 46.8946L51.4701 50.7968C46.8433 55.4236 46.8433 62.9106 51.4701 67.532C56.0969 72.1533 63.584 72.1587 68.2053 67.532L72.1109 63.6264C72.8807 62.8565 72.8807 61.6084 72.1109 60.8386C71.3405 60.0682 70.0913 60.0689 69.3217 60.84L65.4216 64.7482ZM55.2382 33.4545C55.156 33.3731 55.045 33.3274 54.9292 33.3274C54.8135 33.3274 54.7025 33.3731 54.6202 33.4545L52.4545 35.6202C52.3731 35.7025 52.3274 35.8135 52.3274 35.9292C52.3274 36.045 52.3731 36.156 52.4545 36.2382L82.7747 66.5585C82.9443 66.728 83.2232 66.728 83.3927 66.5585L85.5585 64.3927C85.728 64.2232 85.728 63.9443 85.5585 63.7747L55.2382 33.4545Z" fill="white"/>
<path d="M61.6752 88.8493H60.0236C59.9935 88.6356 59.9319 88.4458 59.8388 88.2799C59.7458 88.1115 59.6264 87.9682 59.4806 87.85C59.3348 87.7319 59.1664 87.6414 58.9753 87.5785C58.7868 87.5157 58.5819 87.4843 58.3607 87.4843C57.961 87.4843 57.6128 87.5836 57.3162 87.7822C57.0195 87.9783 56.7895 88.2648 56.6261 88.6419C56.4627 89.0165 56.381 89.4715 56.381 90.007C56.381 90.5575 56.4627 91.0201 56.6261 91.3946C56.792 91.7692 57.0233 92.052 57.3199 92.2431C57.6166 92.4341 57.9597 92.5296 58.3494 92.5296C58.5681 92.5296 58.7704 92.5007 58.9565 92.4429C59.145 92.3851 59.3122 92.3009 59.458 92.1903C59.6038 92.0771 59.7245 91.9401 59.82 91.7792C59.918 91.6184 59.9859 91.4348 60.0236 91.2287L61.6752 91.2362C61.6325 91.5907 61.5257 91.9326 61.3547 92.2619C61.1863 92.5887 60.9588 92.8816 60.6722 93.1405C60.3881 93.3969 60.0488 93.6006 59.6541 93.7514C59.2619 93.8997 58.8182 93.9739 58.323 93.9739C57.6342 93.9739 57.0183 93.818 56.4753 93.5063C55.9348 93.1946 55.5074 92.7433 55.1932 92.1526C54.8815 91.5618 54.7256 90.8466 54.7256 90.007C54.7256 89.1648 54.884 88.4484 55.2007 87.8576C55.5175 87.2668 55.9474 86.8168 56.4904 86.5076C57.0334 86.1959 57.6442 86.0401 58.323 86.0401C58.7704 86.0401 59.1852 86.1029 59.5673 86.2286C59.952 86.3543 60.2926 86.5378 60.5892 86.7791C60.8859 87.018 61.1272 87.3108 61.3132 87.6577C61.5018 88.0047 61.6224 88.4018 61.6752 88.8493ZM64.4223 86.1456V93.8683H62.8159V86.1456H64.4223ZM65.7091 93.8683V88.0763H67.3155V93.8683H65.7091ZM66.516 87.3297C66.2772 87.3297 66.0723 87.2505 65.9014 87.0921C65.733 86.9312 65.6487 86.7389 65.6487 86.5152C65.6487 86.294 65.733 86.1042 65.9014 85.9458C66.0723 85.7849 66.2772 85.7044 66.516 85.7044C66.7549 85.7044 66.9585 85.7849 67.1269 85.9458C67.2979 86.1042 67.3833 86.294 67.3833 86.5152C67.3833 86.7389 67.2979 86.9312 67.1269 87.0921C66.9585 87.2505 66.7549 87.3297 66.516 87.3297ZM71.2192 93.9814C70.6259 93.9814 70.1156 93.8557 69.6882 93.6043C69.2634 93.3504 68.9366 92.9985 68.7078 92.5485C68.4816 92.0985 68.3685 91.5807 68.3685 90.9949C68.3685 90.4016 68.4828 89.8813 68.7116 89.4338C68.9429 88.9838 69.2709 88.6331 69.6958 88.3817C70.1206 88.1278 70.6259 88.0009 71.2117 88.0009C71.7169 88.0009 72.1594 88.0926 72.539 88.2762C72.9186 88.4597 73.219 88.7173 73.4402 89.0492C73.6614 89.381 73.7834 89.7707 73.806 90.2181H72.2901C72.2474 89.929 72.1343 89.6965 71.9507 89.5205C71.7697 89.342 71.5322 89.2528 71.2381 89.2528C70.9892 89.2528 70.7717 89.3207 70.5857 89.4564C70.4022 89.5897 70.2589 89.7845 70.1558 90.0409C70.0528 90.2973 70.0012 90.6078 70.0012 90.9723C70.0012 91.3418 70.0515 91.6561 70.1521 91.915C70.2551 92.1739 70.3997 92.3713 70.5857 92.507C70.7717 92.6428 70.9892 92.7106 71.2381 92.7106C71.4216 92.7106 71.5862 92.6729 71.732 92.5975C71.8803 92.5221 72.0023 92.4127 72.0978 92.2695C72.1958 92.1237 72.2599 91.9489 72.2901 91.7453H73.806C73.7808 92.1878 73.6602 92.5774 73.444 92.9143C73.2303 93.2486 72.9349 93.5101 72.5578 93.6986C72.1808 93.8871 71.7345 93.9814 71.2192 93.9814ZM76.29 92.2016L76.2938 90.2747H76.5276L78.3828 88.0763H80.2268L77.7342 90.9874H77.3534L76.29 92.2016ZM74.8345 93.8683V86.1456H76.4408V93.8683H74.8345ZM78.4545 93.8683L76.7501 91.3456L77.821 90.2106L80.3361 93.8683H78.4545ZM36.5813 101.076V102.283H33.0933V101.076H36.5813ZM33.8852 99.6886H35.4916V105.088C35.4916 105.237 35.5142 105.352 35.5594 105.435C35.6047 105.516 35.6675 105.572 35.748 105.605C35.8309 105.638 35.9265 105.654 36.0346 105.654C36.11 105.654 36.1854 105.648 36.2608 105.635C36.3362 105.62 36.3941 105.609 36.4343 105.601L36.6869 106.797C36.6065 106.822 36.4934 106.851 36.3475 106.883C36.2017 106.919 36.0245 106.94 35.8159 106.947C35.4287 106.963 35.0893 106.911 34.7977 106.793C34.5086 106.675 34.2836 106.491 34.1228 106.242C33.9619 105.993 33.8827 105.679 33.8852 105.3V99.6886ZM40.1825 106.981C39.5967 106.981 39.0902 106.857 38.6628 106.608C38.238 106.357 37.9099 106.007 37.6786 105.56C37.4474 105.11 37.3317 104.588 37.3317 103.995C37.3317 103.397 37.4474 102.874 37.6786 102.426C37.9099 101.976 38.238 101.627 38.6628 101.378C39.0902 101.127 39.5967 101.001 40.1825 101.001C40.7682 101.001 41.2735 101.127 41.6983 101.378C42.1257 101.627 42.455 101.976 42.6863 102.426C42.9176 102.874 43.0332 103.397 43.0332 103.995C43.0332 104.588 42.9176 105.11 42.6863 105.56C42.455 106.007 42.1257 106.357 41.6983 106.608C41.2735 106.857 40.7682 106.981 40.1825 106.981ZM40.19 105.737C40.4565 105.737 40.679 105.662 40.8575 105.511C41.0359 105.357 41.1704 105.149 41.2609 104.885C41.3539 104.621 41.4005 104.32 41.4005 103.984C41.4005 103.647 41.3539 103.346 41.2609 103.082C41.1704 102.818 41.0359 102.61 40.8575 102.456C40.679 102.303 40.4565 102.226 40.19 102.226C39.921 102.226 39.6948 102.303 39.5113 102.456C39.3303 102.61 39.1933 102.818 39.1002 103.082C39.0097 103.346 38.9645 103.647 38.9645 103.984C38.9645 104.32 39.0097 104.621 39.1002 104.885C39.1933 105.149 39.3303 105.357 39.5113 105.511C39.6948 105.662 39.921 105.737 40.19 105.737ZM48.6697 106.963C48.2297 106.963 47.8313 106.849 47.4743 106.623C47.1199 106.394 46.8383 106.059 46.6296 105.616C46.4235 105.171 46.3204 104.626 46.3204 103.98C46.3204 103.316 46.4273 102.764 46.641 102.324C46.8546 101.882 47.1387 101.551 47.4932 101.333C47.8501 101.111 48.241 101.001 48.6659 101.001C48.9902 101.001 49.2604 101.056 49.4766 101.167C49.6953 101.275 49.8713 101.411 50.0045 101.574C50.1403 101.735 50.2434 101.893 50.3137 102.049H50.3628V99.1456H51.9654V106.868H50.3816V105.941H50.3137C50.2383 106.102 50.1315 106.261 49.9932 106.42C49.8575 106.575 49.6802 106.705 49.4615 106.808C49.2453 106.911 48.9814 106.963 48.6697 106.963ZM49.1787 105.684C49.4377 105.684 49.6564 105.614 49.8348 105.473C50.0158 105.33 50.1541 105.13 50.2496 104.874C50.3477 104.617 50.3967 104.317 50.3967 103.972C50.3967 103.628 50.3489 103.329 50.2534 103.075C50.1579 102.821 50.0196 102.625 49.8386 102.487C49.6576 102.348 49.4377 102.279 49.1787 102.279C48.9148 102.279 48.6923 102.351 48.5113 102.494C48.3303 102.637 48.1933 102.836 48.1003 103.09C48.0073 103.344 47.9607 103.638 47.9607 103.972C47.9607 104.309 48.0073 104.607 48.1003 104.866C48.1958 105.122 48.3328 105.324 48.5113 105.469C48.6923 105.613 48.9148 105.684 49.1787 105.684ZM53.2861 106.868V101.076H54.8925V106.868H53.2861ZM54.0931 100.33C53.8542 100.33 53.6494 100.25 53.4784 100.092C53.31 99.9312 53.2258 99.7389 53.2258 99.5152C53.2258 99.294 53.31 99.1042 53.4784 98.9458C53.6494 98.7849 53.8542 98.7044 54.0931 98.7044C54.3319 98.7044 54.5355 98.7849 54.7039 98.9458C54.8749 99.1042 54.9603 99.294 54.9603 99.5152C54.9603 99.7389 54.8749 99.9312 54.7039 100.092C54.5355 100.25 54.3319 100.33 54.0931 100.33ZM60.9984 102.728L59.5278 102.818C59.5026 102.693 59.4486 102.58 59.3656 102.479C59.2826 102.376 59.1733 102.294 59.0375 102.234C58.9043 102.171 58.7447 102.14 58.5587 102.14C58.3098 102.14 58.0999 102.192 57.9289 102.298C57.758 102.401 57.6725 102.539 57.6725 102.713C57.6725 102.851 57.7278 102.968 57.8384 103.064C57.949 103.159 58.1388 103.236 58.4078 103.294L59.4561 103.505C60.0192 103.62 60.439 103.806 60.7156 104.063C60.9921 104.319 61.1304 104.656 61.1304 105.073C61.1304 105.453 61.0185 105.786 60.7948 106.073C60.5735 106.359 60.2693 106.583 59.8822 106.744C59.4976 106.902 59.0539 106.981 58.5511 106.981C57.7844 106.981 57.1735 106.822 56.7185 106.503C56.266 106.181 56.0008 105.743 55.9228 105.19L57.5028 105.107C57.5506 105.341 57.6662 105.52 57.8497 105.643C58.0332 105.763 58.2683 105.824 58.5549 105.824C58.8364 105.824 59.0627 105.77 59.2336 105.662C59.4071 105.551 59.4951 105.409 59.4976 105.236C59.4951 105.09 59.4335 104.97 59.3128 104.877C59.1921 104.782 59.0061 104.709 58.7547 104.659L57.7517 104.459C57.1861 104.346 56.765 104.15 56.4885 103.87C56.2145 103.591 56.0774 103.236 56.0774 102.803C56.0774 102.431 56.178 102.111 56.3791 101.842C56.5827 101.573 56.8681 101.365 57.2351 101.22C57.6046 101.074 58.037 101.001 58.5323 101.001C59.2638 101.001 59.8395 101.155 60.2593 101.465C60.6816 101.774 60.928 102.195 60.9984 102.728ZM64.7588 106.981C64.1656 106.981 63.6552 106.856 63.2279 106.604C62.803 106.35 62.4762 105.998 62.2475 105.548C62.0212 105.099 61.9081 104.581 61.9081 103.995C61.9081 103.402 62.0225 102.881 62.2512 102.434C62.4825 101.984 62.8106 101.633 63.2354 101.382C63.6603 101.128 64.1656 101.001 64.7513 101.001C65.2566 101.001 65.699 101.093 66.0786 101.276C66.4582 101.46 66.7586 101.717 66.9798 102.049C67.2011 102.381 67.323 102.771 67.3456 103.218H65.8297C65.787 102.929 65.6739 102.696 65.4904 102.521C65.3094 102.342 65.0718 102.253 64.7777 102.253C64.5288 102.253 64.3114 102.321 64.1253 102.456C63.9418 102.59 63.7985 102.784 63.6955 103.041C63.5924 103.297 63.5409 103.608 63.5409 103.972C63.5409 104.342 63.5911 104.656 63.6917 104.915C63.7948 105.174 63.9393 105.371 64.1253 105.507C64.3114 105.643 64.5288 105.711 64.7777 105.711C64.9612 105.711 65.1259 105.673 65.2717 105.598C65.42 105.522 65.5419 105.413 65.6374 105.269C65.7355 105.124 65.7996 104.949 65.8297 104.745H67.3456C67.3205 105.188 67.1998 105.577 66.9836 105.914C66.7699 106.249 66.4746 106.51 66.0975 106.699C65.7204 106.887 65.2742 106.981 64.7588 106.981ZM70.9911 106.981C70.4053 106.981 69.8988 106.857 69.4714 106.608C69.0466 106.357 68.7185 106.007 68.4872 105.56C68.256 105.11 68.1403 104.588 68.1403 103.995C68.1403 103.397 68.256 102.874 68.4872 102.426C68.7185 101.976 69.0466 101.627 69.4714 101.378C69.8988 101.127 70.4053 101.001 70.9911 101.001C71.5768 101.001 72.0821 101.127 72.5069 101.378C72.9343 101.627 73.2636 101.976 73.4949 102.426C73.7262 102.874 73.8418 103.397 73.8418 103.995C73.8418 104.588 73.7262 105.11 73.4949 105.56C73.2636 106.007 72.9343 106.357 72.5069 106.608C72.0821 106.857 71.5768 106.981 70.9911 106.981ZM70.9986 105.737C71.2651 105.737 71.4876 105.662 71.666 105.511C71.8445 105.357 71.979 105.149 72.0695 104.885C72.1625 104.621 72.209 104.32 72.209 103.984C72.209 103.647 72.1625 103.346 72.0695 103.082C71.979 102.818 71.8445 102.61 71.666 102.456C71.4876 102.303 71.2651 102.226 70.9986 102.226C70.7296 102.226 70.5034 102.303 70.3199 102.456C70.1389 102.61 70.0019 102.818 69.9088 103.082C69.8183 103.346 69.7731 103.647 69.7731 103.984C69.7731 104.32 69.8183 104.621 69.9088 104.885C70.0019 105.149 70.1389 105.357 70.3199 105.511C70.5034 105.662 70.7296 105.737 70.9986 105.737ZM76.4927 103.52V106.868H74.8863V101.076H76.4173V102.098H76.4852C76.6134 101.761 76.8283 101.495 77.13 101.299C77.4316 101.1 77.7974 101.001 78.2273 101.001C78.6295 101.001 78.9802 101.089 79.2793 101.265C79.5785 101.441 79.811 101.692 79.9769 102.019C80.1429 102.343 80.2258 102.73 80.2258 103.18V106.868H78.6194V103.467C78.622 103.113 78.5315 102.836 78.3479 102.637C78.1644 102.436 77.9118 102.336 77.59 102.336C77.3738 102.336 77.1828 102.382 77.0168 102.475C76.8534 102.568 76.7252 102.704 76.6322 102.883C76.5417 103.058 76.4952 103.271 76.4927 103.52ZM83.0982 103.52V106.868H81.4919V101.076H83.0228V102.098H83.0907C83.2189 101.761 83.4338 101.495 83.7355 101.299C84.0372 101.1 84.4029 101.001 84.8328 101.001C85.235 101.001 85.5857 101.089 85.8849 101.265C86.184 101.441 86.4166 101.692 86.5825 102.019C86.7484 102.343 86.8314 102.73 86.8314 103.18V106.868H85.225V103.467C85.2275 103.113 85.137 102.836 84.9535 102.637C84.77 102.436 84.5173 102.336 84.1955 102.336C83.9794 102.336 83.7883 102.382 83.6224 102.475C83.459 102.568 83.3308 102.704 83.2378 102.883C83.1473 103.058 83.1008 103.271 83.0982 103.52ZM90.737 106.981C90.1412 106.981 89.6284 106.861 89.1985 106.619C88.7711 106.376 88.4418 106.031 88.2105 105.586C87.9793 105.139 87.8636 104.61 87.8636 103.999C87.8636 103.403 87.9793 102.88 88.2105 102.43C88.4418 101.98 88.7674 101.629 89.1872 101.378C89.6095 101.127 90.1047 101.001 90.6729 101.001C91.055 101.001 91.4107 101.062 91.74 101.186C92.0719 101.306 92.361 101.489 92.6073 101.732C92.8562 101.976 93.0498 102.283 93.188 102.653C93.3263 103.02 93.3954 103.449 93.3954 103.942V104.383H88.5047V103.388H91.8833C91.8833 103.157 91.833 102.952 91.7325 102.773C91.6319 102.595 91.4924 102.455 91.3139 102.355C91.138 102.252 90.9331 102.2 90.6993 102.2C90.4554 102.2 90.2392 102.257 90.0507 102.37C89.8647 102.48 89.7189 102.63 89.6133 102.818C89.5077 103.004 89.4537 103.212 89.4511 103.441V104.387C89.4511 104.674 89.5039 104.921 89.6095 105.13C89.7176 105.339 89.8697 105.499 90.0658 105.613C90.2619 105.726 90.4944 105.782 90.7634 105.782C90.9419 105.782 91.1053 105.757 91.2536 105.707C91.4019 105.657 91.5289 105.581 91.6344 105.481C91.74 105.38 91.8205 105.257 91.8758 105.111L93.3615 105.209C93.2861 105.566 93.1315 105.878 92.8977 106.144C92.6664 106.408 92.3672 106.614 92.0002 106.763C91.6357 106.909 91.2146 106.981 90.737 106.981ZM97.0607 106.981C96.4674 106.981 95.9571 106.856 95.5297 106.604C95.1049 106.35 94.7781 105.998 94.5493 105.548C94.323 105.099 94.2099 104.581 94.2099 103.995C94.2099 103.402 94.3243 102.881 94.5531 102.434C94.7843 101.984 95.1124 101.633 95.5372 101.382C95.9621 101.128 96.4674 101.001 97.0531 101.001C97.5584 101.001 98.0009 101.093 98.3805 101.276C98.76 101.46 99.0605 101.717 99.2817 102.049C99.5029 102.381 99.6248 102.771 99.6474 103.218H98.1316C98.0888 102.929 97.9757 102.696 97.7922 102.521C97.6112 102.342 97.3736 102.253 97.0795 102.253C96.8306 102.253 96.6132 102.321 96.4272 102.456C96.2437 102.59 96.1004 102.784 95.9973 103.041C95.8942 103.297 95.8427 103.608 95.8427 103.972C95.8427 104.342 95.893 104.656 95.9935 104.915C96.0966 105.174 96.2411 105.371 96.4272 105.507C96.6132 105.643 96.8306 105.711 97.0795 105.711C97.263 105.711 97.4277 105.673 97.5735 105.598C97.7218 105.522 97.8437 105.413 97.9393 105.269C98.0373 105.124 98.1014 104.949 98.1316 104.745H99.6474C99.6223 105.188 99.5016 105.577 99.2855 105.914C99.0718 106.249 98.7764 106.51 98.3993 106.699C98.0222 106.887 97.576 106.981 97.0607 106.981ZM103.757 101.076V102.283H100.269V101.076H103.757ZM101.061 99.6886H102.667V105.088C102.667 105.237 102.69 105.352 102.735 105.435C102.78 105.516 102.843 105.572 102.923 105.605C103.006 105.638 103.102 105.654 103.21 105.654C103.285 105.654 103.361 105.648 103.436 105.635C103.512 105.62 103.569 105.609 103.61 105.601L103.862 106.797C103.782 106.822 103.669 106.851 103.523 106.883C103.377 106.919 103.2 106.94 102.991 106.947C102.604 106.963 102.265 106.911 101.973 106.793C101.684 106.675 101.459 106.491 101.298 106.242C101.137 105.993 101.058 105.679 101.061 105.3V99.6886Z" fill="white"/>
</svg>
